<?xml version="1.0" encoding="iso-8859-1"?>
<!-- Generator: Adobe Illustrator 18.1.1, SVG Export Plug-In . SVG Version: 6.00 Build 0)  -->
<svg version="1.1" id="Capa_1" xmlns="http://www.w3.org/2000/svg" xmlns:xlink="http://www.w3.org/1999/xlink" x="0px" y="0px"
	 viewBox="0 0 414.549 414.549" style="enable-background:new 0 0 414.549 414.549;" xml:space="preserve">
<g>
	<g>
		<path style="fill:#010002;" d="M207.279,329.289c-62.801,0-113.889-51.088-113.889-113.889
			c0-62.793,51.088-113.889,113.889-113.889s113.889,51.096,113.889,113.889C321.168,278.2,270.072,329.289,207.279,329.289z
			 M207.279,120.498c-52.332,0-94.909,42.577-94.909,94.909s42.569,94.901,94.909,94.901c52.332,0,94.901-42.569,94.901-94.901
			S259.61,120.498,207.279,120.498z"/>
	</g>
	<g>
		<path style="fill:#010002;" d="M207.279,289.743c-40.984,0-74.344-33.352-74.344-74.344c0-40.984,33.352-74.344,74.344-74.344
			c40.984,0,74.344,33.352,74.344,74.344S248.263,289.743,207.279,289.743z M207.279,160.035c-30.531,0-55.364,24.841-55.364,55.364
			c0,30.515,24.841,55.364,55.364,55.364c30.515,0,55.364-24.849,55.364-55.364C262.642,184.876,237.793,160.035,207.279,160.035z"
			/>
	</g>
	<g>
		<path style="fill:#010002;" d="M406.421,371.541H8.129c-4.487,0-8.129-3.633-8.129-8.129V99.827c0-4.487,3.642-8.129,8.129-8.129
			h83.318V51.137c0-4.487,3.642-8.129,8.129-8.129h218.114c4.495,0,8.129,3.642,8.129,8.129v40.562h80.603
			c4.495,0,8.129,3.642,8.129,8.129v263.585C414.549,367.907,410.916,371.541,406.421,371.541z M16.257,355.284h382.035V107.956
			h-80.603c-4.495,0-8.129-3.642-8.129-8.129V59.265H107.704v40.562c0,4.487-3.642,8.129-8.129,8.129H16.257V355.284z"/>
	</g>
</g>
<g>
</g>
<g>
</g>
<g>
</g>
<g>
</g>
<g>
</g>
<g>
</g>
<g>
</g>
<g>
</g>
<g>
</g>
<g>
</g>
<g>
</g>
<g>
</g>
<g>
</g>
<g>
</g>
<g>
</g>
</svg>
